<svg xmlns="http://www.w3.org/2000/svg" id="Layer_2" data-name="Layer 2" width="275.8" height="87.07" viewBox="0 0 275.8 87.07"><defs><style>      .cls-1 {        fill: #195e7c;        fill-rule: evenodd;      }    </style></defs><g id="Layer_1-2" data-name="Layer 1"><g><path class="cls-1" d="m85.55.5c2.25-.57,4.6-.59,6.89-.29,2.55.35,5.06,1.19,7.22,2.6,0,2.01,0,4.01,0,6.02-1.35-1.03-2.8-1.95-4.38-2.59-2.08-.87-4.37-1.23-6.62-1.07-1.08.09-2.17.33-3.11.86-.62.35-1.16.85-1.49,1.48-.44.8-.49,1.75-.33,2.63.13.78.56,1.49,1.17,2,.79.67,1.77,1.08,2.73,1.45,2.02.73,4.04,1.47,6.06,2.21,1.74.64,3.44,1.48,4.82,2.73,1.32,1.17,2.26,2.76,2.64,4.48.38,1.77.42,3.65-.07,5.41-.44,1.59-1.37,3.03-2.62,4.11-1.33,1.16-2.97,1.92-4.66,2.38-2.31.61-4.74.7-7.12.44-2.96-.33-5.94-1.19-8.41-2.89,0-2.04,0-4.08,0-6.12,2.97,2.4,6.71,3.92,10.56,3.97,1.63.03,3.31-.14,4.78-.89.83-.43,1.54-1.12,1.88-2,.38-.96.37-2.06.06-3.04-.32-.97-1.11-1.71-1.97-2.22-1.51-.89-3.2-1.39-4.83-2-1.98-.73-4.03-1.34-5.87-2.4-1.4-.79-2.68-1.84-3.55-3.21-1.17-1.84-1.49-4.1-1.29-6.24.2-2.01,1.15-3.93,2.65-5.28,1.36-1.25,3.08-2.06,4.85-2.51h0Z"></path><path class="cls-1" d="m221.28,2c2.34-1.5,5.18-2.06,7.93-2,3.43.03,6.9.91,9.78,2.79,0,2,0,4.01,0,6.01-1.24-.93-2.55-1.79-3.98-2.42-2.47-1.1-5.26-1.54-7.94-1.13-1.43.25-2.96.88-3.68,2.22-.75,1.46-.51,3.47.75,4.57.98.87,2.24,1.31,3.45,1.75,1.99.73,3.99,1.44,5.98,2.19,1.77.71,3.49,1.65,4.81,3.05,1.22,1.27,1.97,2.93,2.23,4.66.28,1.89.21,3.88-.55,5.66-.63,1.52-1.73,2.83-3.08,3.76-1.58,1.11-3.45,1.75-5.34,2.08-2.63.43-5.35.3-7.95-.25-2.16-.48-4.3-1.25-6.12-2.53,0-2.04,0-4.08,0-6.12,2.33,1.87,5.1,3.23,8.06,3.74,1.28.23,2.59.29,3.89.21,1.32-.1,2.67-.37,3.8-1.1.87-.55,1.52-1.45,1.7-2.48.22-1.2.01-2.54-.8-3.48-.71-.84-1.72-1.34-2.7-1.78-1.61-.69-3.28-1.22-4.92-1.83-1.59-.56-3.18-1.14-4.63-2-1.34-.79-2.55-1.83-3.37-3.16-.81-1.31-1.21-2.85-1.28-4.39-.09-1.39.09-2.81.62-4.11.65-1.62,1.87-2.98,3.33-3.92h0Z"></path><path class="cls-1" d="m258.63.87c1.63-.58,3.36-.87,5.09-.86,3.53-.06,7.12.78,10.13,2.67.13.05.17.18.16.31,0,1.94,0,3.88,0,5.81-1.38-1.05-2.86-1.99-4.48-2.64-2.03-.82-4.24-1.17-6.43-1.03-1.11.09-2.23.32-3.2.88-.7.4-1.31,1-1.61,1.76-.59,1.46-.27,3.34.99,4.36,1.38,1.12,3.14,1.54,4.76,2.18,1.9.72,3.85,1.32,5.7,2.17,1.7.8,3.31,1.9,4.41,3.44,1.2,1.65,1.67,3.72,1.64,5.74.04,1.79-.44,3.61-1.44,5.11-1.01,1.52-2.51,2.66-4.17,3.39-1.77.79-3.71,1.17-5.64,1.26-2.16.11-4.33-.11-6.43-.62-1.93-.49-3.83-1.22-5.47-2.37-.06-2.04-.01-4.09-.03-6.14,2.98,2.41,6.73,3.94,10.59,3.98,1.67.03,3.41-.14,4.89-.96.77-.43,1.43-1.09,1.76-1.92.38-.99.38-2.11.04-3.1-.33-.94-1.09-1.66-1.92-2.16-1.54-.91-3.26-1.42-4.93-2.04-1.98-.73-4.02-1.34-5.86-2.41-1.47-.84-2.82-1.99-3.67-3.47-.92-1.59-1.23-3.48-1.17-5.3.06-1.7.6-3.39,1.63-4.75,1.15-1.56,2.84-2.65,4.65-3.3h0Z"></path><path class="cls-1" d="m138.71.03c7.85,7.48,15.68,14.97,23.53,22.45.01-7.3,0-14.6,0-21.91,1.87,0,3.74,0,5.61,0,0,11.64,0,23.28,0,34.92-5.28-5.14-10.58-10.27-15.86-15.41-2.56-2.47-5.09-4.97-7.66-7.42-.02,7.42.01,14.85-.01,22.27-1.87-.01-3.74,0-5.6,0,0-11.63,0-23.26,0-34.89h0Z"></path><path class="cls-1" d="m0,.57c3,0,6.01,0,9.01,0,2.11.02,4.24-.1,6.32.27,1.98.33,3.96,1.04,5.5,2.38,1.25,1.07,2.12,2.56,2.5,4.16.41,1.8.41,3.72-.17,5.49-.61,1.89-2.01,3.57-3.88,4.31.31.2.67.3,1,.48,1.71.88,3.07,2.39,3.81,4.16.57,1.34.74,2.82.61,4.26-.13,1.86-.74,3.72-1.93,5.18-1.34,1.67-3.33,2.69-5.39,3.19-1.77.45-3.6.51-5.41.48-3.99,0-7.98,0-11.96,0C0,23.47,0,12.02,0,.57H0Zm5.66,5.05c0,3.13-.02,6.25.01,9.37,2.3-.02,4.6,0,6.9-.01,1.45-.07,3-.35,4.12-1.34.83-.72,1.24-1.82,1.3-2.89.08-1.18-.11-2.47-.89-3.4-.69-.84-1.74-1.28-2.78-1.49-1.18-.24-2.38-.23-3.58-.23-1.69,0-3.39,0-5.08,0h0Zm0,14.22c0,3.34,0,6.68,0,10.03,2.44,0,4.88,0,7.33,0,1.39-.02,2.83-.24,4.01-1.01,1-.64,1.7-1.72,1.91-2.89.23-1.28.1-2.68-.59-3.8-.55-.92-1.48-1.56-2.48-1.9-.92-.32-1.89-.44-2.86-.42-2.44,0-4.88,0-7.32,0h0Z"></path><path class="cls-1" d="m37.16.57c1.94,0,3.88,0,5.82,0,0,5.91,0,11.82,0,17.74,0,2.08-.08,4.2.43,6.23.4,1.66,1.23,3.28,2.62,4.32,1.38,1.03,3.13,1.4,4.83,1.4,1.72,0,3.52-.36,4.91-1.42,1.17-.87,1.94-2.17,2.39-3.54.52-1.62.66-3.35.64-5.05,0-6.56,0-13.12,0-19.68,1.94,0,3.88,0,5.82,0,0,6.83,0,13.66,0,20.49.05,2.81-.43,5.7-1.79,8.2-1.17,2.18-3.09,3.94-5.36,4.94-2.57,1.15-5.45,1.44-8.24,1.22-1.95-.17-3.89-.65-5.62-1.58-1.27-.68-2.42-1.58-3.34-2.69-1.1-1.3-1.88-2.84-2.37-4.46-.56-1.85-.77-3.8-.74-5.73,0-6.8,0-13.59,0-20.38h0Z"></path><path class="cls-1" d="m116.37.56c1.94.01,3.87,0,5.81,0,.01,11.45-.01,22.89.01,34.34-1.94.03-3.88,0-5.83.02,0-11.45-.01-22.91,0-34.36h0Z"></path><path class="cls-1" d="m183.34.56c6.92.02,13.84,0,20.76,0,0,1.73,0,3.45,0,5.18-5.02,0-10.04,0-15.06,0,0,2.74,0,5.48,0,8.22,4.5,0,9,0,13.5,0,0,1.7,0,3.4,0,5.1-4.5,0-9,0-13.5,0,0,3.54,0,7.08,0,10.62,5.02,0,10.04,0,15.05,0,0,1.74,0,3.49,0,5.23-6.92,0-13.84,0-20.76,0-.02-9.28,0-18.57-.01-27.85,0-2.17-.02-4.35.01-6.52h0Z"></path><path class="cls-1" d="m45.28,52.18c7.79,7.37,15.57,14.74,23.37,22.1,0-7.18,0-14.37,0-21.55,1.85,0,3.71,0,5.56,0,0,11.44,0,22.89,0,34.33-7.8-7.47-15.57-14.98-23.35-22.47,0,7.31,0,14.62,0,21.93-1.86,0-3.73,0-5.59,0,0-11.45,0-22.89,0-34.34h0Z"></path><path class="cls-1" d="m94.02,53.4c2.2-1.01,4.67-1.33,7.07-1.22,3.21.12,6.44.98,9.16,2.72,0,1.98,0,3.96,0,5.94-1.36-1.03-2.82-1.95-4.4-2.58-2.09-.86-4.39-1.2-6.65-1.02-1.07.11-2.15.35-3.08.91-.7.41-1.28,1.05-1.56,1.82-.44,1.3-.23,2.91.79,3.89.79.79,1.85,1.23,2.87,1.62,2.05.74,4.1,1.48,6.14,2.22,1.63.6,3.22,1.37,4.55,2.5,1.3,1.09,2.28,2.57,2.72,4.22.43,1.67.52,3.44.16,5.14-.34,1.63-1.2,3.15-2.42,4.29-1.28,1.23-2.91,2.04-4.61,2.54-2.11.62-4.34.74-6.53.61-2.27-.16-4.53-.63-6.63-1.51-.9-.39-1.79-.83-2.59-1.41.02-2.01,0-4.02.01-6.03,2.97,2.39,6.71,3.89,10.54,3.91,1.64.02,3.34-.15,4.8-.95.85-.46,1.56-1.23,1.84-2.16.28-.93.26-1.97-.1-2.88-.37-.95-1.19-1.64-2.06-2.13-1.49-.83-3.13-1.33-4.73-1.91-1.82-.67-3.69-1.23-5.4-2.15-1.54-.81-2.97-1.94-3.91-3.43-.94-1.5-1.31-3.31-1.28-5.06-.01-1.67.46-3.35,1.41-4.72.95-1.4,2.34-2.46,3.88-3.16h0Z"></path><path class="cls-1" d="m22.97,52.74c1.94,0,3.88,0,5.82,0,0,11.26,0,22.53,0,33.79-1.94,0-3.88,0-5.82,0,0-11.26,0-22.53,0-33.79h0Z"></path><path class="cls-1" d="m126.93,52.74c1.93,0,3.86,0,5.79,0,0,11.26,0,22.53,0,33.79-1.93,0-3.86,0-5.79,0,0-11.26,0-22.53,0-33.79h0Z"></path><path class="cls-1" d="m149.56,52.74c4.46,0,8.93,0,13.39,0,3.47.05,7,.95,9.83,3.01,2.4,1.71,4.18,4.2,5.18,6.96.83,2.29,1.17,4.73,1.15,7.16-.03,3.47-.83,7.01-2.76,9.93-1.59,2.46-3.98,4.37-6.69,5.46-2.12.86-4.42,1.26-6.7,1.29-4.47,0-8.94,0-13.4,0,0-11.26,0-22.53,0-33.79h0Zm5.76,5.08c0,7.86,0,15.72,0,23.58,1.83,0,3.66,0,5.49,0,1.12,0,2.25.04,3.37-.11,2.13-.25,4.24-1.06,5.81-2.55,1.39-1.3,2.31-3.04,2.8-4.87.48-1.8.6-3.69.48-5.54-.11-1.67-.46-3.33-1.15-4.86-.67-1.47-1.7-2.79-3.02-3.73-1.52-1.1-3.37-1.67-5.22-1.85-1.12-.12-2.24-.07-3.36-.08-1.73,0-3.46,0-5.19,0h0Z"></path><path class="cls-1" d="m191.27,52.74c6.88,0,13.76,0,20.64,0,0,1.69,0,3.39,0,5.08-4.98,0-9.97,0-14.95,0,0,2.71,0,5.41,0,8.12,4.46,0,8.93,0,13.39,0,0,1.66,0,3.33,0,4.99-4.47.03-8.94,0-13.41.01v10.46c4.98,0,9.97,0,14.95,0,0,1.71,0,3.42,0,5.13-6.88,0-13.76,0-20.64,0,0-11.26,0-22.53,0-33.79h0Z"></path><path class="cls-1" d="m229.12,52.73c4.22,0,8.44,0,12.65,0,2.09.04,4.23.38,6.12,1.31,1.5.71,2.82,1.84,3.69,3.26,1.04,1.67,1.46,3.67,1.42,5.63.02,2-.32,4.06-1.35,5.8-.77,1.31-1.97,2.33-3.35,2.96-1,.47-2.08.75-3.17.92,4.07,4.64,8.15,9.27,12.21,13.91-2.19,0-4.39,0-6.58,0-3.95-4.57-7.89-9.14-11.84-13.7-1.35,0-2.7,0-4.05,0,0,4.57.01,9.14-.01,13.71-1.92-.01-3.84,0-5.76,0,0-11.26,0-22.53,0-33.79h0Zm5.77,4.98c0,3.44,0,6.87,0,10.31h6.68c1.51-.03,3.1-.42,4.24-1.47.77-.7,1.25-1.69,1.41-2.72.19-1.3.02-2.7-.71-3.81-.68-1.07-1.83-1.75-3.04-2.05-1.22-.33-2.49-.25-3.74-.26-1.62,0-3.23,0-4.85,0h0Z"></path></g></g></svg>