<svg xmlns="http://www.w3.org/2000/svg" width="141" height="16" viewBox="0 0 141 16" fill="none"><g clip-path="url(#clip0_2_2468)"><path d="M7.11161 15.0189L7.69385 14.9078C8.73201 14.7041 8.95228 14.4267 9.29841 12.1132L10.6198 3.19276L9.20401 3.22973C7.70959 3.26681 7.17466 3.65542 6.51387 4.8399L6.01052 5.74669H5.75879L6.63973 2.23022H6.92293C7.28468 2.60029 7.37919 2.67446 11.6738 2.67446C16.1258 2.67446 16.3302 2.60029 16.865 2.23022H17.1482L16.1414 5.74669H15.8897L15.8581 4.8399C15.8109 3.65542 15.4964 3.26681 14.0649 3.22973L12.4759 3.19276L11.1387 12.1132C10.7926 14.4267 10.9185 14.7042 11.9095 14.9078L12.4602 15.0189L12.4287 15.2965C12.1298 15.2965 10.3365 15.2594 9.7386 15.2594C9.15658 15.2594 7.36323 15.2965 7.0643 15.2965L7.11139 15.0189H7.11161Z" fill="black"></path><path d="M21.3793 13.427L22.166 9.05931C22.2132 8.76319 22.2761 8.42998 22.2761 8.1896C22.2761 7.85639 22.1345 7.57882 21.8357 7.57882C21.0648 7.57882 19.5388 9.79966 19.1141 10.8175L18.4376 15.2777H16.7073L18.4534 3.85883C18.6106 2.85944 18.5637 2.60029 17.8713 2.4152L17.4466 2.30417L17.4938 2.08211L20.42 1.48987L20.53 1.71193L19.1928 10.1512C19.9008 8.74475 21.1121 6.30174 22.5593 6.30174C23.4718 6.30174 24.0224 6.89398 24.0224 8.0044C24.0224 8.28198 23.991 8.63361 23.9281 8.94816L23.1573 13.2418C23.1101 13.5194 23.0785 13.7416 23.0785 13.9081C23.0785 14.2782 23.2044 14.4079 23.4405 14.4079C23.7393 14.4079 24.1641 14.1857 24.6832 13.6675L24.8405 13.8896C23.991 14.9075 23.236 15.4257 22.528 15.4257C21.5369 15.4257 21.1279 14.852 21.3796 13.4269L21.3793 13.427Z" fill="black"></path><path d="M29.938 8.31908C29.9694 7.41229 29.6706 6.78296 29.0257 6.78296C28.003 6.78296 26.9334 8.67071 26.839 10.8914C29.293 10.5214 29.9066 9.63302 29.938 8.31908ZM29.1829 14.3524C29.8278 14.3524 30.3941 14.1673 31.0234 13.6122L31.1965 13.8343C30.2997 14.9446 29.2457 15.4999 28.113 15.4999C26.2883 15.4999 25.0298 14.2044 25.0298 11.7985C25.0298 8.87435 27.0749 6.26489 29.3402 6.26489C31.0863 6.26489 31.8572 7.17168 31.8572 8.37471C31.8572 10.1513 30.0794 11.0212 26.8389 11.2248C26.8546 13.3715 27.877 14.3524 29.1829 14.3524Z" fill="black"></path><path d="M32.8789 15.019L33.4609 14.9078C34.4519 14.7227 34.6566 14.4267 35.0026 12.1133L35.9307 5.78373C36.2767 3.47051 36.1824 3.17427 35.2385 2.98918L34.6722 2.87827L34.7194 2.60046C35.0182 2.60046 36.7485 2.63755 37.3309 2.63755C37.9128 2.63755 39.6591 2.60046 39.958 2.60046L39.9265 2.87827L39.3288 2.98918C38.3377 3.17439 38.1331 3.47051 37.787 5.78373L36.859 12.1133C36.513 14.4267 36.6071 14.7228 37.5512 14.9078L38.1174 15.019L38.0702 15.2965C37.7714 15.2965 36.0409 15.2595 35.4589 15.2595C34.8769 15.2595 33.1306 15.2965 32.8318 15.2965L32.879 15.019H32.8789Z" fill="black"></path><path d="M43.3587 13.4271L44.1453 9.05933C44.1925 8.76321 44.2552 8.41157 44.2552 8.18962C44.2552 7.85642 44.1136 7.57884 43.8308 7.57884C43.0755 7.57884 41.6441 9.63314 41.1248 10.7805L40.3856 15.2777H38.655L39.7249 8.68926C39.8665 7.85642 39.9294 7.41229 39.2056 7.24563L38.7337 7.1346L38.7652 6.91254L41.7069 6.32019L41.8172 6.54225L41.235 10.0586C42.0374 8.44854 43.17 6.30176 44.5388 6.30176C45.4511 6.30176 46.0016 6.894 46.0016 8.00442C46.0016 8.282 45.9702 8.63363 45.9072 8.94818L45.1365 13.2419C44.9792 14.1302 45.0736 14.4079 45.4353 14.4079C45.7342 14.4079 46.1433 14.1672 46.6625 13.6676L46.8197 13.8896C45.9701 14.9076 45.2151 15.4257 44.5072 15.4257C43.516 15.4257 43.1071 14.852 43.3588 13.427L43.3587 13.4271Z" fill="black"></path><path d="M52.105 11.9464L52.3566 10.3548C52.451 9.79955 52.4982 9.31845 52.4982 8.87421C52.4982 7.6713 52.105 6.91252 51.0824 6.91252C49.761 6.91252 48.8328 9.33688 48.8328 11.9649C48.8328 13.5935 49.2104 14.2411 49.8239 14.2411C50.5476 14.2411 51.57 13.0752 52.105 11.9463V11.9464ZM47.0081 12.224C47.0081 8.76319 49.1475 6.41277 51.2868 6.41277C51.9162 6.41277 52.514 6.6164 52.8757 6.82003L53.3004 3.85883C53.4263 2.95193 53.3948 2.60029 52.7341 2.4152L52.3252 2.30417L52.3724 2.08211L55.2669 1.48987L55.3771 1.71193L53.6309 13.2418C53.5837 13.538 53.568 13.76 53.568 13.9267C53.568 14.3522 53.6939 14.4078 53.9297 14.4078C54.213 14.3892 54.6221 14.1671 55.1412 13.6674L55.2985 13.8895C54.449 14.9074 53.7096 15.4256 53.0018 15.4256C52.0265 15.4256 51.649 14.7594 51.9007 13.3158L52.0266 12.6125C51.3658 13.908 50.3276 15.4812 49.1162 15.4812C47.7948 15.4812 47.0084 14.1302 47.0084 12.2239L47.0081 12.224Z" fill="black"></path><path d="M57.0875 3.58133C57.0875 2.89649 57.5597 2.35999 58.2046 2.35999C58.8338 2.35999 59.3059 2.8966 59.3059 3.58133C59.3059 4.2846 58.8338 4.80289 58.2046 4.80289C57.5597 4.80289 57.0875 4.28471 57.0875 3.58133ZM55.9078 13.5752L56.6943 8.68943C56.8359 7.85658 56.8047 7.431 56.1281 7.2458L55.7034 7.13477L55.7506 6.9127L58.6923 6.32035L58.8025 6.54241L57.7014 13.242C57.6542 13.5382 57.6384 13.7602 57.6227 13.9269C57.6227 14.2969 57.7486 14.408 57.9844 14.408C58.2833 14.408 58.7081 14.1673 59.2271 13.6676L59.3845 13.9082C58.6138 14.8336 57.78 15.4258 57.072 15.4258C56.081 15.4258 55.7035 14.8151 55.908 13.5751L55.9078 13.5752Z" fill="black"></path><path d="M64.5599 11.9466L64.8116 10.3549C64.906 9.76271 64.9689 9.22598 64.9689 8.76331C64.9689 7.57883 64.5913 6.91265 63.6161 6.91265C62.3574 6.91265 61.3822 9.39253 61.3822 11.9835C61.3822 13.5937 61.7282 14.2414 62.2789 14.2414C63.0498 14.2414 64.025 13.0754 64.5599 11.9466ZM59.5574 12.2242C59.5574 8.76331 61.7755 6.4129 63.8206 6.4129C64.497 6.4129 65.3308 6.67193 65.8971 7.04211L66.9038 6.26489H67.187L66.0859 13.2421C66.0387 13.5197 66.023 13.7418 66.023 13.9084C66.023 14.2785 66.1173 14.4081 66.3848 14.4081C66.6678 14.4081 67.0926 14.1674 67.6117 13.6678L67.7534 13.8898C66.9038 14.9078 66.1645 15.426 65.4565 15.426C64.4812 15.426 64.1037 14.7598 64.3554 13.3161L64.4813 12.6129C63.8206 13.9084 62.8137 15.4816 61.5867 15.4816C60.3124 15.4816 59.5574 14.1306 59.5574 12.2243V12.2242Z" fill="black"></path><path d="M72.708 13.4271L73.4946 9.05933C73.5418 8.76321 73.6047 8.41157 73.6047 8.18962C73.6047 7.85642 73.4631 7.57884 73.1799 7.57884C72.4247 7.57884 70.9932 9.63314 70.4742 10.7805L69.7347 15.2777H68.0044L69.074 8.68926C69.2156 7.85642 69.2786 7.41229 68.5549 7.24563L68.0828 7.1346L68.1144 6.91254L71.0562 6.32019L71.1663 6.54225L70.5843 10.0586C71.3866 8.44854 72.5192 6.30176 73.8878 6.30176C74.8002 6.30176 75.3509 6.894 75.3509 8.00442C75.3509 8.282 75.3194 8.63363 75.2565 8.94818L74.4855 13.2419C74.3282 14.1302 74.4226 14.4079 74.7844 14.4079C75.0834 14.4079 75.4922 14.1672 76.0116 13.6676L76.1689 13.8896C75.3194 14.9076 74.5644 15.4257 73.8563 15.4257C72.8654 15.4257 72.4562 14.852 72.708 13.427V13.4271Z" fill="black"></path><path d="M78.479 0.616577H85.6776V3.04162H81.3682V6.11992H84.9432V8.40504H81.3682V12.8123H85.6776V15.2142H78.479V0.616577Z" fill="black"></path><path d="M90.3538 10.8768L88.7378 15.2142H85.9463L88.9827 7.51893L86.1913 0.616577H89.1294L90.6231 4.34758L91.9941 0.616577H94.7611L91.9698 7.68222L95.0304 15.2142H92.1166L90.3538 10.8768Z" fill="black"></path><path d="M99.633 7.44903C101.053 7.44903 101.224 7.05267 101.224 5.74682V4.62752C101.224 3.4382 101.053 2.90193 99.6084 2.90193H98.5554V7.44903H99.633ZM95.6663 0.616577H99.5594C102.473 0.616577 104.114 1.24624 104.114 4.67415V5.65343C104.114 9.08134 102.449 9.71089 99.5594 9.71089H98.5554V15.2142H95.6663V0.616577Z" fill="black"></path><path d="M108.814 7.28585C110.234 7.28585 110.381 6.88949 110.381 5.58342V4.6274C110.381 3.43809 110.234 2.90182 108.79 2.90182H107.81V7.28574H108.814L108.814 7.28585ZM104.921 0.616577H108.741C111.63 0.616577 113.246 1.24624 113.246 4.67415V5.53689C113.246 7.6122 112.609 8.61497 111.458 9.08145L113.172 15.2143H110.21L108.594 9.45455H107.81V15.2143H104.921V0.61669L104.921 0.616577Z" fill="black"></path><path d="M114.249 0.616577H121.448V3.04162H117.138V6.11992H120.713V8.40504H117.138V12.8123H121.448V15.2142H114.249V0.616577Z" fill="black"></path><path d="M121.961 10.9234L124.899 10.5738C124.972 12.6258 125.266 12.9056 126.491 12.9056C127.666 12.9056 127.911 12.3458 127.911 11.5531C127.911 10.5504 127.176 10.0607 125.364 8.66156C123.479 7.26244 122.181 6.18978 122.181 4.20763C122.181 1.59593 123.797 0.5 126.344 0.5C129.429 0.5 130.359 1.71258 130.653 4.27775L127.764 4.5342C127.69 3.345 127.397 2.92526 126.417 2.92526C125.364 2.92526 125.07 3.43828 125.07 4.11446C125.07 4.95394 125.658 5.39705 127.25 6.60963C129.331 8.21868 130.825 9.26796 130.825 11.5533C130.825 13.9085 129.649 15.3077 126.392 15.3077C122.842 15.3077 122.059 13.5355 121.961 10.9235L121.961 10.9234Z" fill="black"></path><path d="M131.289 10.9234L134.227 10.5738C134.301 12.6258 134.595 12.9056 135.819 12.9056C136.994 12.9056 137.239 12.3458 137.239 11.5531C137.239 10.5504 136.505 10.0607 134.693 8.66156C132.807 7.26244 131.51 6.18978 131.51 4.20763C131.51 1.59593 133.126 0.5 135.672 0.5C138.757 0.5 139.688 1.71258 139.981 4.27775L137.092 4.5342C137.019 3.345 136.725 2.92526 135.745 2.92526C134.693 2.92526 134.399 3.43828 134.399 4.11446C134.399 4.95394 134.986 5.39705 136.578 6.60963C138.605 8.17642 140.074 9.21267 140.15 11.3763V11.7647C140.08 13.9918 138.879 15.3076 135.721 15.3076C132.171 15.3076 131.387 13.5354 131.289 10.9234H131.289Z" fill="black"></path><path fill-rule="evenodd" clip-rule="evenodd" d="M2.23785 1.75084C2.23347 1.79951 2.11446 1.98909 2.26044 2.13462L3.88814 3.71603C4.14032 3.96337 4.15381 4.16745 3.95973 4.37165C3.80094 4.56134 3.66867 4.72665 3.54527 4.87747C3.47908 4.95523 3.66855 4.65383 3.50044 4.46942C2.82807 3.80964 2.34596 3.35371 1.83733 2.84924C1.63831 2.65516 1.6292 2.47536 1.81002 2.26138C1.9687 2.0718 2.11873 1.8966 2.23774 1.75073L2.23785 1.75084Z" fill="#E41D2D"></path><path fill-rule="evenodd" clip-rule="evenodd" d="M0.744034 3.54822C0.730885 3.59677 0.611875 3.77669 0.766622 3.93199L2.38107 5.5134C2.64639 5.76086 2.65111 5.95505 2.46591 6.17397C2.30274 6.35883 2.16608 6.51448 2.04696 6.66529C1.98527 6.748 2.17035 6.44165 2.00662 6.2669C1.32099 5.59735 0.843377 5.1512 0.343513 4.64662C0.135611 4.45265 0.126621 4.27779 0.307327 4.05887C0.466007 3.86434 0.616033 3.69409 0.743809 3.54822H0.744034Z" fill="#E41D2D"></path><path fill-rule="evenodd" clip-rule="evenodd" d="M1.48326 2.64941C1.48337 2.69796 1.35549 2.87788 1.50585 3.02341L3.13355 4.6146C3.38573 4.86194 3.39922 5.05636 3.20514 5.27033C3.05084 5.45991 2.91857 5.61567 2.79068 5.76637C2.72449 5.84908 2.91846 5.54274 2.74596 5.3681C2.0737 4.69866 1.59598 4.2524 1.08735 3.74792C0.888324 3.54901 0.870343 3.37415 1.05554 3.16007C1.21422 2.97037 1.36425 2.79528 1.48326 2.64941Z" fill="#E41D2D"></path><path fill-rule="evenodd" clip-rule="evenodd" d="M1.12354 15.2994L3.173 15.2964L2.92947 14.8937L1.33942 14.8958L1.12354 15.2994Z" fill="#252422"></path><path fill-rule="evenodd" clip-rule="evenodd" d="M2.04894 7.28528C2.08906 7.52319 2.55588 8.34097 3.17734 8.75194L2.57117 11.1478L2.05444 11.1484L1.52884 11.1492L0.924805 8.75509C1.45625 8.38255 2.0096 7.52341 2.04905 7.28528H2.04894Z" stroke="#252422" stroke-width="2.29187" stroke-miterlimit="2.61313"></path><path d="M2.04883 7.31665L2.05141 9.20642" stroke="#252422" stroke-width="1.34243" stroke-miterlimit="2.61313"></path><path fill-rule="evenodd" clip-rule="evenodd" d="M1.37378 10.5782C1.73677 11.151 2.39048 11.15 2.71649 10.5812L2.67334 11.2759L1.4321 11.2777L1.37378 10.5782Z" fill="#252422"></path><path fill-rule="evenodd" clip-rule="evenodd" d="M1.29954 11.7419L2.81902 11.7398L2.82307 11.5066L1.29932 11.5088L1.29954 11.7419Z" fill="#252422"></path><path fill-rule="evenodd" clip-rule="evenodd" d="M2.9211 14.6651C3.13979 13.9398 3.32499 13.3065 3.41726 12.5512C3.27858 12.3668 3.13991 12.1823 3.00134 11.9979L2.10028 11.9992C2.09197 12.3393 2.36583 12.3874 2.72376 12.4695C2.13759 13.4128 2.87525 13.4311 2.56789 14.6655L2.92121 14.665L2.9211 14.6651Z" fill="#252422"></path><path fill-rule="evenodd" clip-rule="evenodd" d="M1.60286 12.5892L1.03287 12.4442C0.697081 12.3622 0.811259 11.9297 1.13817 12.002L1.73468 12.147C2.03069 12.2145 1.92089 12.6665 1.60275 12.5892H1.60286Z" fill="#252422"></path><path fill-rule="evenodd" clip-rule="evenodd" d="M1.64961 13.2873L0.960382 13.1231C0.624479 13.0313 0.743152 12.5988 1.07456 12.6663L1.77716 12.8353C2.06878 12.9223 1.93685 13.35 1.64972 13.2873H1.64961Z" fill="#252422"></path><path fill-rule="evenodd" clip-rule="evenodd" d="M1.15072 13.3876L1.73397 13.5228C2.0874 13.6098 1.95558 14.0423 1.62417 13.9699L1.01878 13.8202C0.74053 13.7525 0.819308 13.2957 1.15072 13.3875V13.3876Z" fill="#252422"></path><path fill-rule="evenodd" clip-rule="evenodd" d="M1.34856 14.1189L1.73301 14.2107C2.08645 14.2927 1.95462 14.7301 1.62322 14.6577L1.20786 14.5612C0.938264 14.4935 1.00828 14.027 1.34856 14.1189Z" fill="#252422"></path><path fill-rule="evenodd" clip-rule="evenodd" d="M2.05885 8.75171C2.2036 8.75148 2.32115 8.88038 2.32137 9.03974C2.32159 9.19898 2.20438 9.3281 2.05964 9.32833C1.91489 9.32855 1.79734 9.19965 1.79712 9.04041C1.79689 8.88117 1.91411 8.75193 2.05885 8.75171Z" fill="#252422"></path><path fill-rule="evenodd" clip-rule="evenodd" d="M1.89575 7.44857C1.89575 7.44857 2.00431 7.18954 2.05488 6.87341C2.05488 6.87341 2.12692 7.32709 2.19704 7.44745L2.09556 7.42992L1.89575 7.44868V7.44857Z" fill="#252422"></path></g><defs><clipPath id="clip0_2_2468"><rect width="139.97" height="15" fill="white" transform="translate(0.179199 0.5)"></rect></clipPath></defs></svg>