<svg xmlns="http://www.w3.org/2000/svg" width="72" height="30" viewBox="0 0 72 30" fill="none"><g clip-path="url(#clip0_2_2440)"><path d="M37.1201 11.0454C37.5419 11.0454 37.9638 11.1509 38.3856 11.1509V11.0454H37.1201Z" fill="white"></path><path d="M10.5454 4.92908C9.27998 4.92908 8.33088 4.92908 7.06543 4.92908C7.06543 6.19453 7.06543 7.03817 7.06543 7.98726C8.33088 7.98726 9.27998 7.98726 10.5454 7.98726C10.5454 7.03817 10.5454 6.19453 10.5454 4.92908Z" fill="black"></path><path d="M68.229 0.605455C67.9127 1.34364 67.5963 1.76545 67.3854 2.29273C66.3309 4.19091 65.3818 6.19454 64.3272 8.09273C64.3272 8.09273 64.3272 8.19818 64.2218 8.19818C64.2218 8.19818 64.2218 8.09273 64.1163 8.09273C62.7454 5.56182 61.3745 3.03091 59.8981 0.605455V0.5C50.6181 0.5 41.2327 0.5 31.8472 0.5V1.66V4.50727V7.56545V9.04182V10.94H31.6363C31.5309 10.94 31.5309 10.94 31.4254 10.94H31.109C31.0036 10.94 30.8981 10.94 30.8981 10.94V9.99091V7.56545V4.71818V3.66364V1.23818V0.710909V0.605455H28.8945C28.4727 0.605455 28.0509 0.605455 27.629 0.605455H27.5236V1.23818V3.55818C27.5236 5.03455 27.5236 6.40545 27.5236 7.88182V7.98727C27.2072 7.98727 27.1018 7.88182 26.8909 7.77636C26.5745 7.56545 26.3636 7.24909 26.2581 6.93273C25.6254 5.66727 24.9927 4.50727 24.36 3.24182C23.8327 2.29273 23.2 1.55455 22.1454 1.02727C21.5127 0.710909 20.88 0.605455 20.2472 0.605455C19.8254 0.605455 19.4036 0.5 18.9818 0.5H18.8763C18.2436 0.5 17.6109 0.5 16.9781 0.5C16.9781 2.08182 16.9781 3.45273 16.9781 4.82364C16.9781 6.72182 16.9781 8.72545 16.9781 10.6236C16.9781 10.6236 16.9781 10.6236 16.9781 10.7291C16.9781 10.7291 16.7672 10.7291 16.6618 10.7291C11.0727 10.7291 5.58905 10.7291 -4.26173e-05 10.7291C-0.105497 10.7291 -0.105497 10.7291 -0.316406 10.7291C-0.316406 11.5727 -0.316406 12.5218 -0.316406 13.3655C-0.316406 13.3655 -0.210952 13.26 -0.105497 13.26C3.16359 13.26 6.43268 13.26 9.59632 13.26C9.70178 13.26 9.80723 13.26 9.80723 13.26C9.80723 13.8927 9.80723 14.6309 9.80723 15.3691H9.59632C8.0145 15.3691 6.43268 15.3691 4.95632 15.3691C4.00723 15.3691 3.16359 15.4745 2.31996 15.8964C0.632685 16.74 0.738139 19.06 2.10905 20.0091C2.74178 20.4309 3.47996 20.6418 4.32359 20.7473C5.48359 20.8527 6.64359 20.8527 7.80359 20.8527C8.75268 20.8527 9.70178 20.7473 10.5454 20.9582C10.7563 20.9582 11.0727 21.0636 11.2836 21.1691C11.6 21.38 11.8109 21.5909 11.8109 22.0127C11.8109 22.7509 11.389 23.1727 10.7563 23.3836C10.1236 23.5945 9.49087 23.7 8.96359 23.7C7.90905 23.7 6.95996 23.7 5.90541 23.5945C5.16723 23.5945 4.42905 23.2782 3.90178 22.8564C3.69087 22.6455 3.47996 22.54 3.26905 22.3291C3.26905 22.3291 3.16359 22.2236 3.05814 22.3291C2.10905 22.7509 1.15996 23.2782 0.210866 23.7C0.421776 24.1218 0.738139 24.4382 1.15996 24.7545C2.10905 25.3873 2.84723 25.4927 3.58541 25.5982C4.11268 25.5982 4.5345 25.7036 5.06178 25.7036C5.90541 25.7036 6.53814 26.1255 7.17087 26.6527C8.0145 27.4964 8.54178 28.4455 9.06905 29.5C10.229 29.5 11.4945 29.5 12.6545 29.5C11.9163 27.9182 10.9672 26.6527 9.49087 25.7036C9.59632 25.7036 9.70177 25.7036 9.70177 25.7036C10.44 25.7036 11.0727 25.5982 11.8109 25.5982C12.76 25.4927 13.6036 25.1764 14.3418 24.6491C15.5018 23.9109 15.9236 22.6455 15.6072 21.4855C15.2909 20.22 14.0254 19.2709 12.6545 19.2709C10.5454 19.1655 8.43632 19.1655 6.32723 19.1655C6.11632 19.1655 5.90541 19.1655 5.6945 19.06C5.37814 18.9545 5.16723 18.6382 5.16723 18.3218C5.16723 17.9 5.37814 17.6891 5.6945 17.5836C5.90541 17.4782 6.11632 17.3727 6.32723 17.3727C8.64723 17.3727 10.9672 17.2673 13.2872 17.2673C13.3927 17.2673 13.6036 17.2673 13.6036 17.2673C13.6036 16.1073 13.6036 14.6309 13.6036 13.4709C14.869 13.4709 16.029 13.4709 17.189 13.4709C17.189 17.6891 17.189 22.54 17.189 26.7582C18.8763 26.7582 18.7709 26.7582 20.4581 26.7582C20.4581 22.54 20.4581 17.6891 20.4581 13.4709C23.9381 13.4709 28.789 13.4709 32.1636 13.4709C32.1636 14.1036 32.1636 14.6309 32.1636 15.2636C31.9527 15.2636 31.9527 15.2636 31.9527 15.2636C31.109 15.2636 30.3709 15.3691 29.5272 15.3691C28.6836 15.3691 27.84 15.4745 26.9963 15.4745C26.1527 15.58 25.309 15.7909 24.6763 16.3182C24.0436 16.74 23.7272 17.2673 23.6218 18.0055C23.5163 19.1655 24.149 20.0091 25.2036 20.5364C26.0472 20.9582 26.9963 21.0636 27.9454 21.1691C28.8945 21.1691 29.8436 21.1691 30.7927 21.1691C31.4254 21.1691 32.0581 21.1691 32.7963 21.2745C33.2181 21.2745 33.64 21.38 33.9563 21.5909C34.2727 21.8018 34.3781 22.0127 34.2727 22.4345C34.1672 22.7509 33.8509 22.9618 33.5345 23.1727C32.6909 23.5945 31.8472 23.7 31.0036 23.8055C29.7381 23.8055 28.3672 23.7 27.2072 23.3836C26.3636 23.1727 25.6254 22.8564 25.0981 22.2236C24.2545 22.7509 23.4109 23.2782 22.5672 23.8055C22.8836 24.2273 23.6218 24.7545 24.2545 25.0709C25.309 25.5982 26.5745 25.8091 27.7345 25.9145C29.6327 26.02 31.4254 26.1255 33.3236 25.8091C34.3781 25.7036 35.3272 25.4927 36.1709 24.9655C37.12 24.4382 37.7527 23.7 37.9636 22.6455C38.069 21.4855 37.7527 20.4309 36.4872 19.7982C36.1709 19.5873 35.749 19.4818 35.4327 19.3764C34.3781 19.1655 33.3236 19.1655 32.3745 19.1655C31.4254 19.1655 30.3709 19.2709 29.4218 19.2709C28.8945 19.2709 28.3672 19.2709 27.84 19.06C27.5236 18.8491 27.3127 18.6382 27.4181 18.3218C27.4181 18.0055 27.629 17.6891 27.9454 17.6891C28.2618 17.5836 28.5781 17.4782 28.8945 17.4782C31.109 17.4782 33.2181 17.3727 35.4327 17.3727C35.5381 17.3727 35.6436 17.3727 35.6436 17.3727C35.6436 16.2127 35.6436 14.7364 35.6436 13.5764C35.8545 13.5764 35.8545 13.5764 35.96 13.5764C37.4363 13.5764 38.8072 13.6818 40.2836 13.5764C40.8109 13.5764 41.1272 13.7873 41.4436 14.1036C41.8654 14.5255 41.9709 15.0527 41.9709 15.6855C41.8654 16.3182 41.4436 16.74 40.8109 16.9509C40.0727 17.1618 39.229 17.1618 38.3854 17.0564C38.069 17.0564 37.7527 16.9509 37.3309 16.9509C37.3309 17.0564 37.3309 17.0564 37.3309 17.0564C37.4363 17.7945 37.6472 18.5327 37.8581 19.2709C38.3854 20.6418 39.1236 21.6964 40.389 22.4345C41.549 23.0673 42.8145 23.2782 44.08 23.2782C45.4509 23.2782 46.9272 22.8564 48.1927 22.3291C48.2981 22.2236 48.2981 22.2236 48.72 22.1182C48.72 22.9618 48.72 23.7 48.72 24.5436C49.7745 24.5436 51.04 24.5436 52.2 24.5436C52.2 21.0636 52.2 17.1618 52.2 13.4709C53.149 13.4709 54.0981 13.4709 55.1527 13.4709C55.1527 17.0564 55.1527 20.9582 55.1527 24.5436C56.3127 24.5436 57.1563 24.5436 58.4218 24.5436C58.4218 21.0636 58.4218 17.1618 58.4218 13.4709C58.8436 13.4709 63.2727 13.4709 64.8545 13.4709L66.12 11.0455C66.2254 11.0455 66.2254 10.94 66.2254 10.94C67.9127 7.77636 69.6 4.61273 71.1818 1.44909C71.2872 1.23818 71.3927 1.02727 71.4981 0.710909C70.549 0.605455 69.389 0.605455 68.229 0.605455ZM22.04 10.8345H20.669C20.669 8.19818 20.669 6.08909 20.669 3.76909C20.9854 3.76909 21.1963 3.76909 21.4072 3.98C21.7236 4.19091 21.829 4.50727 21.9345 4.82364C22.5672 6.08909 23.0945 7.24909 23.7272 8.51454C24.149 9.35818 24.7818 10.2018 25.6254 10.6236C25.8363 10.7291 26.0472 10.8345 26.2581 10.94C24.8872 10.8345 23.5163 10.8345 22.04 10.8345ZM41.1272 8.62C40.9163 8.62 40.8109 8.62 40.6 8.62C38.9127 8.62 37.2254 8.51454 35.5381 8.51454H35.4327C35.4327 6.93273 35.4327 4.92909 35.4327 3.34727H35.5381C37.2254 3.34727 39.0181 3.24182 40.7054 3.34727C41.0218 3.34727 41.2327 3.34727 41.549 3.45273C42.0763 3.66364 42.4981 4.08545 42.4981 4.61273C42.4981 4.92909 42.4981 5.14 42.4981 5.45636C42.4981 6.08909 42.4981 6.72182 42.4981 7.35455C42.3927 7.98727 41.8654 8.51454 41.1272 8.62ZM48.6145 18.7436C48.6145 18.8491 48.509 18.9545 48.509 18.9545C47.7709 19.9036 46.8218 20.5364 45.6618 20.8527C44.7127 21.0636 43.7636 21.0636 42.8145 20.6418C42.1818 20.3255 41.76 19.9036 41.4436 19.2709C41.4436 19.2709 41.4436 19.2709 41.4436 19.1655C41.8654 19.1655 42.2872 19.06 42.6036 19.06C43.1309 18.9545 43.6581 18.8491 44.1854 18.5327C45.029 18.0055 45.4509 17.2673 45.5563 16.2127C45.6618 15.1582 45.24 13.9982 44.6072 13.3655C45.9781 13.3655 47.2436 13.3655 48.8254 13.3655C48.8254 13.3655 48.8254 13.5764 48.8254 13.6818C48.72 15.3691 48.6145 17.0564 48.6145 18.7436ZM50.3018 10.8345H43.0254C43.6581 10.6236 44.2909 10.2018 44.7127 9.67454C45.3454 8.93636 45.5563 8.09273 45.6618 7.14364C45.7672 6.40545 45.6618 5.66727 45.6618 5.03455C45.6618 4.71818 45.6618 4.50727 45.5563 4.19091C45.5563 3.87455 45.4509 3.55818 45.3454 3.24182C46.9272 3.24182 48.6145 3.24182 50.1963 3.24182C50.3018 5.77273 50.3018 8.09273 50.3018 10.8345ZM54.52 10.8345C54.4145 10.8345 54.309 10.8345 54.2036 10.8345H53.4654C53.4654 8.09273 53.4654 5.77273 53.4654 3.34727C53.5709 3.34727 53.6763 3.34727 53.7818 3.34727C55.1527 3.34727 56.5236 3.24182 57.789 3.24182C57.8945 3.24182 58 3.24182 58.1054 3.34727C59.4763 5.87818 60.9527 8.30364 62.3236 10.8345C59.3709 10.8345 55.9963 10.8345 54.52 10.8345Z" fill="black"></path><path d="M31.6363 7.46002C32.5099 7.46002 33.2181 6.75182 33.2181 5.87821C33.2181 5.00459 32.5099 4.29639 31.6363 4.29639C30.7626 4.29639 30.0544 5.00459 30.0544 5.87821C30.0544 6.75182 30.7626 7.46002 31.6363 7.46002Z" fill="#EC1C24"></path></g><defs><clipPath id="clip0_2_2440"><rect width="71.7091" height="29" fill="white" transform="translate(0 0.5)"></rect></clipPath></defs></svg>