<svg xmlns="http://www.w3.org/2000/svg" width="94" height="34" viewBox="0 0 94 34" fill="none"><g clip-path="url(#clip0_2_2509)"><path d="M76.1555 8.46912H0.830078V34H76.1555V8.46912Z" fill="white"></path><path d="M75.7847 8.87091H1.23193V33.5982H75.7847V8.87091Z" fill="#0A1F41"></path><path fill-rule="evenodd" clip-rule="evenodd" d="M6.11548 13.6V28.5909H9.73184V19.2872L15.11 28.5909H18.6955V13.6H15.0173V22.3163L9.85548 13.6H6.11548Z" fill="white"></path><path fill-rule="evenodd" clip-rule="evenodd" d="M20.7974 13.5691V28.5909H32.5428L32.5119 25.2836H24.5374V22.2855H31.5537V19.1018H24.5374V16.9073H32.1719V13.5691H20.7974Z" fill="white"></path><path fill-rule="evenodd" clip-rule="evenodd" d="M33.2537 13.5691L37.5191 28.5909H41.29L43.2682 18.9473L45.3082 28.5909H48.7082L53.0046 13.6L49.1409 13.5691L47.07 22.4091L45.2464 13.6L41.2282 13.5691L39.5282 21.9145L37.5809 13.5691H33.2537Z" fill="white"></path><path fill-rule="evenodd" clip-rule="evenodd" d="M61.6283 18.5145C61.6283 18.5145 62.1228 16.66 59.1864 16.3509C57.1774 16.1654 56.7446 17.5564 57.0537 18.0818C57.6719 19.1636 62.3392 19.1636 64.5646 21.0491C66.481 22.6564 66.0174 26.3345 63.9774 27.6945C61.5355 29.3018 57.7337 29.0545 56.0337 28.2818C52.6337 26.7364 53.1901 23.3982 53.1901 23.3982H56.7755C56.7755 23.3982 56.5901 25.7164 59.4028 25.7164C62.3701 25.7164 62.3701 24.1709 61.7519 23.5527C61.0719 22.8727 55.4773 22.6254 53.9628 20.3073C52.9428 18.7618 52.7883 15.6709 55.5083 14.0327C58.2283 12.3945 62.2774 13.1982 63.761 14.7127C65.5228 16.5364 65.2446 18.5145 65.2446 18.5145H61.6283Z" fill="white"></path><path fill-rule="evenodd" clip-rule="evenodd" d="M67.9028 0H93.5574L93.5265 25.5H67.9337L67.9028 0Z" fill="white"></path><path fill-rule="evenodd" clip-rule="evenodd" d="M68.3047 0.401794H93.1556V25.1291H68.3047V0.401794Z" fill="#E02A26"></path><path fill-rule="evenodd" clip-rule="evenodd" d="M70.8391 5.28546H76.8973V20.6473H73.2809V8.84001H70.8391V5.28546Z" fill="white"></path><path fill-rule="evenodd" clip-rule="evenodd" d="M87.2209 12.2709C88.1791 11.5909 88.89 10.7873 88.7663 8.90184C88.4882 6.30547 86.3245 5.0382 83.79 5.00729C81.2554 4.97638 79.2773 6.52184 78.9063 8.80911C78.5973 10.7873 79.8645 11.9309 80.4827 12.2709C79.2773 12.92 78.1645 14.6509 78.3809 16.5364C78.5972 18.2982 80.4209 20.9564 83.8827 20.8946C87.0663 20.8327 89.0445 18.6382 89.2609 16.5673C89.6009 13.7546 88.1172 12.7964 87.2209 12.2709ZM83.9136 8.06729C84.7482 8.06729 85.4282 8.62365 85.4282 9.55093C85.4282 10.3855 84.7791 11.1273 83.9136 11.1273C83.0791 11.1273 82.3682 10.5091 82.3682 9.55093C82.3991 8.59275 83.2027 8.06729 83.9136 8.06729ZM83.9445 17.4018C82.9554 17.4327 82.1827 16.5673 82.1518 15.6091C82.1518 14.5891 82.8627 13.8473 83.9136 13.8473C84.9027 13.8473 85.6445 14.6509 85.6445 15.6091C85.6445 16.5673 84.9954 17.3709 83.9445 17.4018Z" fill="white"></path></g><defs><clipPath id="clip0_2_2509"><rect width="92.7273" height="34" fill="white" transform="translate(0.830078)"></rect></clipPath></defs></svg>