<svg xmlns="http://www.w3.org/2000/svg" width="186" height="14" viewBox="0 0 186 14" fill="none"><g clip-path="url(#clip0_2_2422)"><path d="M7.62466 12.0066C7.62466 13.1973 9.38459 12.6286 9.38459 13.0729C9.38459 13.2862 9.20688 13.3223 8.92254 13.3223C8.08728 13.3223 7.62466 13.2862 6.55838 13.2862C5.4921 13.2862 5.03005 13.3223 4.19422 13.3223C3.90988 13.3223 3.73217 13.2862 3.73217 13.0729C3.73217 12.6286 5.49153 13.1973 5.49153 12.0066L5.47433 1.66202C3.67943 1.66202 2.13275 3.24367 1.43909 4.68372C1.24361 5.09246 1.15475 5.32349 1.04813 5.32349C0.923726 5.32349 0.888184 5.2524 0.888184 5.18132C0.888184 4.96806 0.994811 4.54155 1.0659 4.20389L1.63458 1.28883C1.65235 1.18163 1.67012 0.951172 1.83006 0.951172C1.93669 0.951172 1.97223 1.02226 2.06109 1.09334C2.16829 1.16443 2.32823 1.23551 2.70143 1.23551H10.3976C10.7708 1.23551 10.9313 1.16443 11.0373 1.09334C11.1262 1.02226 11.1617 0.951172 11.2683 0.951172C11.4283 0.951172 11.4461 1.1822 11.4638 1.28883L12.0325 4.20389C12.1036 4.54155 12.2108 4.96806 12.2108 5.18132C12.2108 5.2524 12.1747 5.32349 12.0509 5.32349C11.9442 5.32349 11.8554 5.09246 11.6599 4.68372C10.9668 3.24367 9.42013 1.66202 7.62466 1.66202V12.0066Z" fill="black"></path><path d="M16.8118 7.13671V12.0072C16.8118 13.1979 18.2868 12.6292 18.2868 13.0735C18.2868 13.2867 18.1802 13.3229 17.8958 13.3229C17.2738 13.3229 16.8118 13.2867 15.7455 13.2867C14.6792 13.2867 14.2166 13.3229 13.5946 13.3229C13.3102 13.3229 13.2036 13.2867 13.2036 13.0735C13.2036 12.6292 14.6792 13.1979 14.6792 12.0072V2.51503C14.6792 1.32378 13.2036 1.89303 13.2036 1.44875C13.2036 1.23549 13.3102 1.19995 13.5946 1.19995C14.2166 1.19995 14.6792 1.23549 15.7455 1.23549C16.8118 1.23549 17.2738 1.19995 17.8958 1.19995C18.1802 1.19995 18.2868 1.23549 18.2868 1.44875C18.2868 1.89303 16.8118 1.32435 16.8118 2.51503V6.70963H21.9482V2.51503C21.9482 1.32378 20.4727 1.89303 20.4727 1.44875C20.4727 1.23549 20.5799 1.19995 20.8642 1.19995C21.4862 1.19995 21.9482 1.23549 23.0145 1.23549C24.0808 1.23549 24.5434 1.19995 25.1649 1.19995C25.4492 1.19995 25.5564 1.23549 25.5564 1.44875C25.5564 1.89303 24.0808 1.32435 24.0808 2.51503V12.0066C24.0808 13.1973 25.5564 12.6286 25.5564 13.0729C25.5564 13.2862 25.4492 13.3223 25.1649 13.3223C24.5429 13.3223 24.0808 13.2862 23.0145 13.2862C21.9482 13.2862 21.4856 13.3223 20.8642 13.3223C20.5799 13.3223 20.4727 13.2862 20.4727 13.0729C20.4727 12.6286 21.9482 13.1973 21.9482 12.0066V7.13614L16.8118 7.13671Z" fill="black"></path><path d="M28.2206 2.51503C28.2206 1.32378 26.745 1.89303 26.745 1.44875C26.745 1.23549 26.8522 1.19995 27.1365 1.19995C27.7585 1.19995 28.2206 1.23549 29.2868 1.23549C33.2149 1.23549 34.5305 1.19995 35.81 1.19995L36.6631 4.52376C36.7164 4.75479 36.7697 4.89696 36.7697 4.98639C36.7697 5.11079 36.7342 5.1641 36.6275 5.1641C36.4143 5.1641 36.4676 4.71982 35.5968 3.47583C34.5122 1.92972 33.0016 1.62704 30.8862 1.62704H30.3531V6.85295H30.7441C32.273 6.85295 33.4281 6.24872 33.4281 4.45325C33.4281 4.18668 33.517 4.11559 33.6414 4.11559C33.7835 4.11559 33.8546 4.18668 33.8546 4.45325V9.76802C33.8546 10.0346 33.7835 10.0879 33.6414 10.0879C33.517 10.0879 33.4281 10.0346 33.4281 9.76802C33.4281 7.90145 32.273 7.27946 30.7441 7.27946H30.3531V11.9011C30.3531 12.5765 30.7796 12.8963 31.8459 12.8963C35.1342 12.8963 36.5387 10.7277 37.0535 8.96773C37.1423 8.70059 37.1956 8.61231 37.32 8.61231C37.4444 8.61231 37.48 8.70059 37.48 8.79002C37.48 8.89722 37.48 9.05716 37.4267 9.30539L36.6803 13.3229C35.2047 13.3229 33.6941 13.2867 29.2863 13.2867C28.22 13.2867 27.7573 13.3229 27.1359 13.3229C26.8516 13.3229 26.7444 13.2867 26.7444 13.0735C26.7444 12.6292 28.22 13.1979 28.22 12.0072L28.2206 2.51503Z" fill="black"></path><path d="M50.2396 12.0066C50.2396 13.1973 51.9996 12.6286 51.9996 13.0729C51.9996 13.2862 51.8219 13.3223 51.5375 13.3223C50.7023 13.3223 50.2396 13.2862 49.1734 13.2862C48.1071 13.2862 47.645 13.3223 46.8092 13.3223C46.5249 13.3223 46.3472 13.2862 46.3472 13.0729C46.3472 12.6286 48.1065 13.1973 48.1065 12.0066L48.0893 1.66202C46.2944 1.66202 44.7477 3.24367 44.0541 4.68372C43.8586 5.09246 43.7697 5.32349 43.6631 5.32349C43.5387 5.32349 43.5032 5.2524 43.5032 5.18132C43.5032 4.96806 43.6098 4.54155 43.6809 4.20389L44.2496 1.28883C44.2673 1.18163 44.2851 0.951172 44.4451 0.951172C44.5517 0.951172 44.5872 1.02226 44.6761 1.09334C44.7827 1.16443 44.9427 1.23551 45.3158 1.23551H53.012C53.3852 1.23551 53.5457 1.16443 53.6517 1.09334C53.7406 1.02226 53.7761 0.951172 53.8828 0.951172C54.0427 0.951172 54.0605 1.1822 54.0783 1.28883L54.6469 4.20389C54.718 4.54155 54.8252 4.96806 54.8252 5.18132C54.8252 5.2524 54.7891 5.32349 54.6653 5.32349C54.5586 5.32349 54.4698 5.09246 54.2743 4.68372C53.5812 3.24367 52.0345 1.66202 50.2391 1.66202L50.2396 12.0066Z" fill="black"></path><path d="M57.4714 2.51503C57.4714 1.32378 55.9963 1.89303 55.9963 1.44875C55.9963 1.23549 56.103 1.19995 56.3873 1.19995C57.0093 1.19995 57.4714 1.23549 58.5376 1.23549C59.6039 1.23549 60.0665 1.19995 60.6885 1.19995C60.9729 1.19995 61.0795 1.23549 61.0795 1.44875C61.0795 1.89303 59.6039 1.32435 59.6039 2.51503V12.0066C59.6039 13.1973 61.0795 12.6286 61.0795 13.0729C61.0795 13.2862 60.9729 13.3223 60.6885 13.3223C60.0665 13.3223 59.6039 13.2862 58.5376 13.2862C57.4714 13.2862 57.0093 13.3223 56.3873 13.3223C56.103 13.3223 55.9963 13.2862 55.9963 13.0729C55.9963 12.6286 57.4714 13.1973 57.4714 12.0066V2.51503Z" fill="black"></path><path d="M69.6104 10.3184L73.4318 1.23549H74.2499C75.3162 1.23549 75.7782 1.19995 76.4002 1.19995C76.6846 1.19995 76.7912 1.23549 76.7912 1.44875C76.7912 1.89303 75.3162 1.32435 75.3162 2.51503V12.0066C75.3162 13.1973 76.7912 12.6286 76.7912 13.0729C76.7912 13.2862 76.6846 13.3223 76.4002 13.3223C75.7782 13.3223 75.3162 13.2862 74.2499 13.2862C73.1836 13.2862 72.721 13.3223 72.099 13.3223C71.8146 13.3223 71.708 13.2862 71.708 13.0729C71.708 12.6286 73.1836 13.1973 73.1836 12.0066V2.76383H73.1475L69.0062 12.913C68.9351 13.0729 68.864 13.2862 68.7396 13.2862C68.6508 13.2862 68.5797 13.1079 68.5086 12.913L64.4562 2.906H64.4206V10.3533C64.4206 11.8645 64.936 12.5931 65.6113 12.8063C66.0739 12.9485 66.2872 12.8774 66.2872 13.1262C66.2872 13.2862 66.18 13.3223 65.8957 13.3223C65.3981 13.3223 64.9182 13.2862 64.2074 13.2862C63.1056 13.2862 62.6429 13.3223 62.323 13.3223C62.0742 13.3223 61.9143 13.3045 61.9143 13.144C61.9143 12.8596 62.1098 12.9485 62.5718 12.8063C63.8336 12.4509 63.9935 11.0642 63.9935 8.91385V2.906C63.9935 1.32378 62.1631 1.89246 62.1631 1.44875C62.1631 1.23549 62.2697 1.19995 62.5541 1.19995C63.1761 1.19995 63.6387 1.23549 64.705 1.23549H65.8423L69.6104 10.3184Z" fill="black"></path><path d="M79.3834 2.51503C79.3834 1.32378 77.9078 1.89303 77.9078 1.44875C77.9078 1.23549 78.015 1.19995 78.2993 1.19995C78.9213 1.19995 79.3834 1.23549 80.4497 1.23549C84.3777 1.23549 85.6934 1.19995 86.9729 1.19995L87.8259 4.52376C87.8792 4.75479 87.9325 4.89696 87.9325 4.98639C87.9325 5.11079 87.897 5.1641 87.7904 5.1641C87.5771 5.1641 87.6304 4.71982 86.7596 3.47583C85.675 1.92972 84.1644 1.62704 82.0491 1.62704H81.5159V6.85295H81.9069C83.4358 6.85295 84.591 6.24872 84.591 4.45325C84.591 4.18668 84.6798 4.11559 84.8042 4.11559C84.9464 4.11559 85.0175 4.18668 85.0175 4.45325V9.76802C85.0175 10.0346 84.9464 10.0879 84.8042 10.0879C84.6798 10.0879 84.591 10.0346 84.591 9.76802C84.591 7.90145 83.4358 7.27946 81.9069 7.27946H81.5159V11.9011C81.5159 12.5765 81.9425 12.8963 83.0087 12.8963C86.297 12.8963 87.7015 10.7277 88.2163 8.96773C88.3052 8.70059 88.3585 8.61231 88.4829 8.61231C88.6073 8.61231 88.6428 8.70059 88.6428 8.79002C88.6428 8.89722 88.6428 9.05716 88.5895 9.30539L87.8431 13.3229C86.3675 13.3229 84.8569 13.2867 80.4491 13.2867C79.3828 13.2867 78.9202 13.3229 78.2988 13.3229C78.0144 13.3229 77.9072 13.2867 77.9072 13.0735C77.9072 12.6292 79.3828 13.1979 79.3828 12.0072V2.51503H79.3834Z" fill="black"></path><path d="M90.2063 8.3985C90.2063 8.23856 90.2952 8.18524 90.384 8.18524C90.544 8.18524 90.5795 8.32741 90.6328 8.71838C90.9349 10.9048 91.8768 13.1446 94.2232 13.1446C96.0015 13.1446 96.8006 12.0783 96.8006 10.8693C96.8006 7.2789 90.2063 8.73615 90.2063 4.36384C90.2063 2.51505 91.9129 0.951172 93.9388 0.951172C95.5211 0.951172 96.1253 1.66202 96.8184 1.66202C97.3337 1.66202 97.1027 1.09334 97.4404 1.09334C97.5653 1.09334 97.6003 1.16443 97.6187 1.35991C97.8497 3.84847 97.9202 5.07469 97.9202 5.30572C97.9202 5.484 97.8319 5.55509 97.7247 5.55509C97.5825 5.55509 97.547 5.32406 97.4937 5.12858C96.8895 3.10207 95.9292 1.37826 93.9217 1.37826C92.571 1.37826 91.7707 2.17797 91.7707 3.29813C91.7707 6.56863 98.365 5.4668 98.365 9.78581C98.365 11.6701 97.0144 13.5717 94.1171 13.5717C92.8193 13.5717 91.6286 12.8964 91.1665 12.8964C90.4379 12.8964 90.7045 13.5006 90.3668 13.5006C90.2957 13.5006 90.2069 13.465 90.2069 13.2873V8.3985H90.2063Z" fill="black"></path><path d="M117.576 7.26113C117.576 11.2425 114.199 13.5711 111.195 13.5711C108.191 13.5711 104.814 11.2425 104.814 7.26113C104.814 3.27979 108.191 0.951172 111.195 0.951172C114.199 0.951172 117.576 3.27979 117.576 7.26113ZM111.195 1.37768C108.866 1.37768 107.16 3.24367 107.16 7.26113C107.16 11.278 108.867 13.1446 111.195 13.1446C113.523 13.1446 115.229 11.278 115.229 7.26113C115.229 3.24367 113.523 1.37768 111.195 1.37768Z" fill="black"></path><path d="M120.363 2.51503C120.363 1.32378 118.888 1.89303 118.888 1.44875C118.888 1.23549 118.995 1.19995 119.28 1.19995C119.902 1.19995 120.364 1.23549 121.43 1.23549C125.358 1.23549 126.674 1.19995 127.812 1.19995L128.665 4.52376C128.718 4.75479 128.771 4.89696 128.771 4.98639C128.771 5.11079 128.736 5.1641 128.629 5.1641C128.416 5.1641 128.469 4.71982 127.598 3.47583C126.514 1.92972 125.003 1.62704 122.888 1.62704H122.496V6.85295H122.888C124.417 6.85295 125.572 6.24872 125.572 4.45325C125.572 4.18668 125.661 4.11559 125.785 4.11559C125.927 4.11559 125.998 4.18668 125.998 4.45325V9.76802C125.998 10.0346 125.927 10.0879 125.785 10.0879C125.661 10.0879 125.572 10.0346 125.572 9.76802C125.572 7.90146 124.417 7.27946 122.888 7.27946H122.496V12.0078C122.496 13.1985 123.972 12.6298 123.972 13.0741C123.972 13.2873 123.865 13.3234 123.58 13.3234C122.958 13.3234 122.496 13.2873 121.43 13.2873C120.363 13.2873 119.901 13.3234 119.279 13.3234C118.995 13.3234 118.887 13.2873 118.887 13.0741C118.887 12.6298 120.362 13.1985 120.362 12.0078L120.363 2.51503Z" fill="black"></path><path d="M136.447 2.51503C136.447 1.32378 134.972 1.89303 134.972 1.44875C134.972 1.23549 135.078 1.19995 135.363 1.19995C135.985 1.19995 136.447 1.23549 137.514 1.23549C138.58 1.23549 139.042 1.19995 139.664 1.19995C139.949 1.19995 140.055 1.23549 140.055 1.44875C140.055 1.89303 138.58 1.32435 138.58 2.51503V12.0066C138.58 13.1973 140.055 12.6286 140.055 13.0729C140.055 13.2862 139.949 13.3223 139.664 13.3223C139.042 13.3223 138.58 13.2862 137.514 13.2862C136.447 13.2862 135.985 13.3223 135.363 13.3223C135.078 13.3223 134.972 13.2862 134.972 13.0729C134.972 12.6286 136.447 13.1973 136.447 12.0066V2.51503Z" fill="black"></path><path d="M150.878 4.16772C150.878 2.65716 150.221 1.92854 149.545 1.71528C149.083 1.57311 148.87 1.6442 148.87 1.39483C148.87 1.23488 148.977 1.19934 149.261 1.19934C149.901 1.19934 150.38 1.23488 151.127 1.23488C151.874 1.23488 152.354 1.19934 152.994 1.19934C153.278 1.19934 153.385 1.23488 153.385 1.39483C153.385 1.6442 153.172 1.57311 152.71 1.71528C152.034 1.92854 151.376 2.65716 151.376 4.16772V13.3222C151.376 13.4466 151.305 13.571 151.163 13.571C151.039 13.571 150.896 13.5177 150.808 13.3928L143.27 3.36801H143.235V10.3533C143.235 11.8644 143.892 12.593 144.568 12.8063C145.03 12.9485 145.243 12.8774 145.243 13.1262C145.243 13.2861 145.136 13.3222 144.852 13.3222C144.212 13.3222 143.732 13.2861 142.985 13.2861C142.239 13.2861 141.759 13.3222 141.119 13.3222C140.834 13.3222 140.728 13.2861 140.728 13.1262C140.728 12.8774 140.941 12.9485 141.403 12.8063C142.079 12.593 142.737 11.8638 142.737 10.3533V2.74602C141.705 1.271 140.746 1.78637 140.746 1.44871C140.746 1.25323 140.87 1.19991 141.137 1.19991C141.563 1.19991 141.918 1.23546 142.487 1.23546H144.14L150.841 10.2295H150.877V4.16772H150.878Z" fill="black"></path><path d="M155.409 2.51503C155.409 1.32378 153.933 1.89303 153.933 1.44875C153.933 1.23549 154.04 1.19995 154.325 1.19995C154.947 1.19995 155.409 1.23549 156.475 1.23549C157.204 1.23549 158.022 1.19995 158.999 1.19995C163.212 1.19995 165.789 3.67074 165.789 7.31443C165.789 10.6382 163.745 13.3223 159.745 13.3223C158.555 13.3223 157.524 13.2862 156.475 13.2862C155.409 13.2862 154.947 13.3223 154.325 13.3223C154.04 13.3223 153.933 13.2862 153.933 13.0729C153.933 12.6286 155.409 13.1973 155.409 12.0066V2.51503ZM157.542 11.2958C157.542 12.4331 158.199 12.8958 159.479 12.8958C161.505 12.8958 163.442 11.9711 163.442 7.43825C163.442 4.04336 162.092 1.62589 159.372 1.62589H157.542V11.2958Z" fill="black"></path><path d="M168.701 2.51503C168.701 1.32378 167.226 1.89303 167.226 1.44875C167.226 1.23549 167.333 1.19995 167.617 1.19995C168.239 1.19995 168.702 1.23549 169.768 1.23549C170.835 1.23549 171.297 1.19995 171.919 1.19995C172.203 1.19995 172.31 1.23549 172.31 1.44875C172.31 1.89303 170.835 1.32435 170.835 2.51503V12.0066C170.835 13.1973 172.31 12.6286 172.31 13.0729C172.31 13.2862 172.203 13.3223 171.919 13.3223C171.297 13.3223 170.835 13.2862 169.768 13.2862C168.702 13.2862 168.239 13.3223 167.617 13.3223C167.333 13.3223 167.226 13.2862 167.226 13.0729C167.226 12.6286 168.701 13.1973 168.701 12.0066V2.51503Z" fill="black"></path><path d="M176.325 8.94936C175.845 10.3183 175.614 10.8331 175.614 11.3491C175.614 13.1268 177.089 12.6997 177.089 13.1268C177.089 13.3228 177 13.3228 176.805 13.3228C176.431 13.3228 176.004 13.2867 174.797 13.2867C174.21 13.2867 173.641 13.3228 173.001 13.3228C172.823 13.3228 172.77 13.2512 172.77 13.109C172.77 12.7891 173.463 12.9668 173.961 12.5403C174.423 12.1493 175.009 11.2075 175.49 9.99844C177.623 4.6659 177.925 4.00837 177.925 3.8662C177.925 3.7418 177.498 3.40414 177.498 3.19089C177.498 2.92432 177.8 2.95986 178.298 1.91135C178.671 1.12941 178.582 0.880615 178.813 0.880615C179.044 0.880615 179.027 1.46707 180.093 3.81346L183.879 12.1855C184.359 13.234 185.194 12.7186 185.194 13.109C185.194 13.3051 185.069 13.3228 184.892 13.3228C184.181 13.3228 183.471 13.2867 182.759 13.2867C182.048 13.2867 181.355 13.3228 180.626 13.3228C180.448 13.3228 180.342 13.2689 180.342 13.109C180.342 12.6653 181.586 13.1807 181.586 12.2204C181.586 12.0605 181.407 11.5274 181.284 11.2602L180.27 8.94994L176.325 8.94936ZM178.174 4.15054L176.503 8.52285H180.094L178.174 4.15054Z" fill="black"></path></g><defs><clipPath id="clip0_2_2422"><rect width="185.406" height="13" fill="white" transform="translate(0.4021 0.5)"></rect></clipPath></defs></svg>