<svg xmlns="http://www.w3.org/2000/svg" width="90" height="90" viewBox="0 0 90 90" fill="none"><path d="M71.28 46.44L68.2201 54.45C68.3101 54 68.3101 53.55 68.3101 53.1C68.3101 46.62 62.01 46.44 62.01 46.44H55.89V51.48C54.99 48.33 52.11 46.17 48.6 46.17C46.08 46.17 43.83 47.34 42.48 49.14V46.44H33.3V49.68H36.09V60.3H39.78V49.59H42.21C41.4901 50.67 41.13 52.02 41.13 53.37C41.13 57.51 44.55 60.66 48.69 60.66C52.11 60.66 55.08 58.5 55.98 55.35V60.3H62.55C62.55 60.3 65.25 60.21 66.96 57.96L66.0601 60.3H69.84L70.74 57.96H75.6L76.5 60.3H80.28L74.9701 46.44H71.28ZM48.69 57.15C46.53 57.15 44.73 55.53 44.73 53.46C44.73 51.39 46.53 49.77 48.69 49.77C50.85 49.77 52.65 51.39 52.65 53.46C52.56 55.44 50.85 57.15 48.69 57.15ZM60.93 57.24C60.21 57.24 59.85 57.15 59.85 57.15V49.59C60.12 49.59 60.39 49.5 60.93 49.5C61.47 49.5 64.35 49.59 64.35 53.28C64.44 57.06 61.65 57.24 60.93 57.24ZM71.73 55.17L73.1701 51.39L74.6101 55.17H71.73Z" fill="#414142"></path><path d="M84.9601 46.44L82.5301 50.04L80.1001 46.44H75.6901L80.4601 53.64V60.3H84.6001V53.64L89.3701 46.44H84.9601Z" fill="#414142"></path><path d="M49.8601 39.42C49.8601 39.42 51.5701 39.6 51.3001 40.95C51.0301 42.3 49.7701 42.03 49.5001 42.03C49.2301 42.03 48.2401 42.03 46.4401 40.59L44.8201 43.47C44.8201 43.47 46.7101 45.45 50.2201 45.45C51.8401 45.45 53.0101 44.91 53.9101 44.1L53.4601 45.27H57.4201L58.3201 42.93H63.1801L64.0801 45.27H67.9501L62.7301 31.32H58.8601L55.4401 40.05C55.3501 37.44 52.8301 36.63 51.3901 36.27C49.4101 35.73 49.5001 35.1 49.5001 34.92C49.5001 34.74 49.6801 33.84 50.8501 33.84C52.0201 33.84 53.4601 34.92 53.4601 34.92L54.9901 32.13C54.9901 32.13 53.1901 30.78 50.4901 30.78C48.5101 30.78 45.5401 31.59 45.5401 35.55C45.5401 35.55 45.0901 38.97 49.8601 39.42ZM60.7501 36.36L62.0101 39.87H59.3101L60.7501 36.36Z" fill="#414142"></path><path d="M39.15 45C42.48 45 45.27 42.21 45.27 38.88V31.23H41.76V39.33C41.76 40.77 40.59 41.94 39.15 41.94C37.71 41.94 36.54 40.77 36.54 39.33V31.23H33.03V38.88C33.03 42.3 35.82 45 39.15 45Z" fill="#414142"></path><path d="M16.11 60.39C24.7091 60.39 31.68 53.4191 31.68 44.82C31.68 36.2209 24.7091 29.25 16.11 29.25C7.51096 29.25 0.540039 36.2209 0.540039 44.82C0.540039 53.4191 7.51096 60.39 16.11 60.39Z" fill="#019BFF"></path></svg>