<svg xmlns="http://www.w3.org/2000/svg" id="Layer_2" data-name="Layer 2" width="88.75" height="88.79" viewBox="0 0 88.75 88.79"><defs><style>      .cls-1 {        fill: #fff;      }      .cls-2 {        fill: #284da0;      }    </style></defs><g id="Layer_1-2" data-name="Layer 1"><g><path id="path3751" class="cls-2" d="m0,88.79h88.75V0H0v88.79Z"></path><path id="path3753" class="cls-1" d="m17.08,65.16c-.89-.73-2.4-1.22-3.96-1.22-2.46,0-4.69,1.32-5.92,3.57-.73,1.32-1.06,2.89-1.06,4.79,0,2.3.67,4.16,1.9,5.58,1.28,1.47,2.9,2.15,5.02,2.15,1.79,0,3.13-.49,4.35-1.47l-1.45-1.96c-.89.73-1.73.98-2.68.98-1.28,0-2.34-.59-2.96-1.71-.45-.83-.67-2.06-.67-4.16,0-1.81.28-3.08.89-4.01.56-.78,1.56-1.32,2.62-1.32.89,0,1.67.29,2.46.88"></path><path id="path3755" class="cls-1" d="m18.87,63.94c.11.49.22,1.52.22,2.64v13.16h3.01v-8.17c.67-.59,1.62-1.08,2.34-1.08.89,0,1.17.44,1.17,1.57v7.68h2.9v-7.97c0-1.08-.06-1.47-.28-2.1-.33-1.03-1.51-1.66-2.96-1.66-1.17,0-2.46.54-3.24,1.27,0-.15.06-.64.06-.98v-2.25c0-1.13-.06-2.2-.22-2.84"></path><path id="path3757" class="cls-1" d="m36.67,74.75l-.06,2.45c-.45.49-1,.78-1.56.78-.73,0-1.28-.59-1.28-1.47,0-1.37.73-1.76,2.79-1.76h.11Zm-5.86-5.04l1.28,2.1c1.23-.78,2.34-1.27,3.29-1.27,1.06,0,1.34.44,1.34,1.71v.44h-.67c-3.63,0-5.47,1.22-5.47,3.91,0,2.25,1.34,3.57,3.91,3.57.95,0,1.73-.25,2.29-.64.22-.15.45-.39.67-.59.33.59.95,1.08,1.62,1.37l1.62-1.81c-.89-.68-1.12-1.13-1.12-2.35v-.2l.11-3.87c0-1.22-.06-1.57-.22-2.05-.45-1.27-1.73-1.96-3.68-1.96-1.06,0-2.01.2-3.13.68-.78.3-1.23.54-1.84.93"></path><path id="path3759" class="cls-1" d="m41.98,68.79c.22.78.39,1.71.39,2.69v8.27h2.96v-8.07c.73-.64,1.51-1.03,2.12-1.03.73,0,.95.39.95,1.66v7.44h2.96v-8.32c0-.73-.06-1.22-.22-1.66-.33-.98-1.45-1.61-2.74-1.61-.67,0-1.45.15-2.07.49-.45.25-.84.54-1.28.83,0-.44-.17-.93-.45-1.42"></path><path id="path3761" class="cls-1" d="m53.59,68.79c.28.78.39,1.71.39,2.69v8.27h3.01v-8.07c.67-.64,1.45-1.03,2.07-1.03.78,0,1,.39,1,1.66v7.44h2.96v-8.32c0-.73-.11-1.22-.28-1.66-.33-.98-1.45-1.61-2.73-1.61-.67,0-1.45.15-2.01.49-.5.25-.89.54-1.34.83,0-.44-.17-.93-.39-1.42"></path><path id="path3763" class="cls-1" d="m68.32,72.8v-.05c0-1.57.67-2.45,1.79-2.45.61,0,1.06.2,1.34.64.28.44.33.88.33,1.71v.15h-3.46Zm5.25,3.91c-.89.73-1.84,1.13-2.85,1.13-1.56,0-2.46-.98-2.46-2.79v-.05h6.64v-.73c0-2.35-.5-3.91-1.56-4.94-.73-.78-1.95-1.22-3.29-1.22-1.51,0-2.62.49-3.57,1.52-1,1.13-1.39,2.49-1.39,4.55,0,3.57,2.12,5.92,5.36,5.92,1.62,0,3.01-.54,4.3-1.61"></path><path id="path3765" class="cls-1" d="m79.93,63.26l-3.07.68c.11,1.03.17,1.96.17,3.42v8.51c0,1.61.06,2.01.28,2.59.33.93,1.34,1.57,2.62,1.57.67,0,1.28-.15,1.79-.34l-.5-1.76c-.17.05-.22.05-.33.05-.22,0-.5-.15-.61-.34-.17-.29-.17-.59-.17-2.54v-8.85c0-1.61-.06-2.35-.17-2.98"></path><path id="path3767" class="cls-1" d="m5.58,43.39l3.68,15.66h3.57l1.28-6.36c.45-2.3.73-4.45.73-4.45.06.39.28,2.4.73,4.5l1.4,6.31h3.41l3.74-15.66h-3.29l-1.23,5.87c-.33,1.52-.84,4.7-.84,5.19,0,0-.39-2.69-.73-4.11l-1.39-6.95h-3.41l-1.4,6.26c-.45,2.15-.73,4.35-.78,4.94,0,0-.22-2.2-.84-5.09l-1.34-6.12"></path><path id="path3769" class="cls-1" d="m27.24,51.96v-.05c0-1.61.67-2.5,1.79-2.5.61,0,1,.24,1.28.68.28.44.39.88.39,1.71v.15h-3.46Zm5.25,3.86c-.89.78-1.84,1.17-2.9,1.17-1.51,0-2.4-1.03-2.4-2.79v-.1h6.59v-.68c0-2.4-.45-3.91-1.51-4.99-.73-.73-1.95-1.22-3.29-1.22-1.51,0-2.62.54-3.57,1.57-1,1.13-1.45,2.49-1.45,4.5,0,3.62,2.12,5.92,5.41,5.92,1.62,0,2.96-.49,4.3-1.57"></path><path id="path3771" class="cls-1" d="m41.25,53.91l-.06,2.45c-.45.49-1,.78-1.56.78-.73,0-1.28-.59-1.28-1.52,0-1.32.73-1.71,2.79-1.71h.11Zm-5.86-5.09l1.28,2.15c1.23-.83,2.34-1.27,3.29-1.27,1.06,0,1.34.39,1.34,1.66v.49c-.28-.05-.45-.05-.67-.05-3.63,0-5.47,1.27-5.47,3.96,0,2.25,1.34,3.52,3.91,3.52.95,0,1.73-.2,2.29-.59.22-.15.45-.39.67-.64.33.59.95,1.13,1.62,1.42l1.62-1.86c-.89-.64-1.12-1.08-1.12-2.35v-.2l.06-3.82c.06-1.22,0-1.57-.17-2.05-.45-1.27-1.79-2.01-3.68-2.01-1.06,0-2.01.25-3.13.68-.78.34-1.23.59-1.84.93"></path><path id="path3773" class="cls-1" d="m52.64,47.5h-2.68c0-1.17.06-2.45.17-3.47l-3.01.73c-.11.88-.11,1.61-.11,2.74h-1.17v2.01h1.17v6.21c0,1.08,0,1.27.17,1.76.39,1.03,1.56,1.66,3.07,1.66.78,0,1.56-.15,2.46-.49l-.39-1.81c-.56.15-.78.25-1.06.25-1.06,0-1.28-.39-1.28-1.86v-5.72h1.9"></path><path id="path3775" class="cls-1" d="m53.92,43.1c.11.44.22,1.52.22,2.59v13.21h3.01v-8.17c.67-.64,1.62-1.08,2.34-1.08.84,0,1.17.44,1.17,1.57v7.68h2.9v-7.98c0-1.13-.06-1.47-.28-2.15-.33-.98-1.51-1.61-2.96-1.61-1.17,0-2.46.49-3.24,1.22,0-.1.06-.59.06-.93v-2.3c0-1.08-.06-2.15-.22-2.79"></path><path id="path3777" class="cls-1" d="m68.38,51.96v-.05c0-1.61.67-2.5,1.84-2.5.56,0,1,.24,1.28.68.28.44.33.88.33,1.71v.15h-3.46Zm5.3,3.86c-.95.78-1.9,1.17-2.9,1.17-1.56,0-2.4-1.03-2.4-2.79v-.1h6.59v-.68c0-2.4-.45-3.91-1.51-4.99-.73-.73-2.01-1.22-3.29-1.22-1.51,0-2.68.54-3.63,1.57-1,1.13-1.4,2.49-1.4,4.5,0,3.62,2.12,5.92,5.36,5.92,1.62,0,3.01-.49,4.3-1.57"></path><path id="path3779" class="cls-1" d="m76.58,47.94c.28.64.45,1.81.45,3.33v7.63h2.96v-8.07c.56-.64,1.17-.98,1.84-.98.33,0,.61.1.89.25l.78-2.64c-.45-.2-.61-.25-1.06-.25-.33,0-.78.05-1,.2-.56.25-1.28.88-1.67,1.42-.06-.64-.22-1.13-.5-1.61"></path><path id="path3781" class="cls-1" d="m5.69,22.9v2.59h3.8v12.92h3.18v-12.92h3.68l.5-2.59"></path><path id="path3783" class="cls-1" d="m18.2,22.6c.11.44.22,1.52.22,2.59v13.21h3.01v-8.22c.67-.59,1.62-1.03,2.34-1.03.89,0,1.17.44,1.17,1.57v7.68h2.9v-8.02c0-1.08-.06-1.47-.28-2.1-.33-.98-1.51-1.61-2.96-1.61-1.17,0-2.46.49-3.24,1.22,0-.15.06-.59.06-.98v-2.25c0-1.08-.06-2.15-.22-2.79"></path><path id="path3785" class="cls-1" d="m33.16,31.41v-.05c0-1.57.61-2.45,1.79-2.45.56,0,1,.2,1.28.68.28.39.33.83.33,1.71v.1h-3.41Zm5.25,3.91c-.95.78-1.9,1.13-2.9,1.13-1.56,0-2.4-.98-2.4-2.74v-.1h6.59v-.68c0-2.4-.45-3.91-1.51-4.99-.73-.78-2.01-1.22-3.29-1.22-1.51,0-2.68.49-3.63,1.57-.95,1.13-1.4,2.45-1.4,4.5,0,3.62,2.12,5.92,5.41,5.92,1.56,0,2.96-.54,4.3-1.57"></path></g></g></svg>