<svg xmlns="http://www.w3.org/2000/svg" id="uuid-ac1ef097-6dff-481f-b761-b6626e4417b1" data-name="Layer 2" viewBox="0 0 193.19 53.39"><defs><style>      .uuid-86f20456-63d4-414e-a321-edb560010167 {        fill: none;      }      .uuid-86f20456-63d4-414e-a321-edb560010167, .uuid-84b0d82c-c3af-48c6-9122-754ea8374c52 {        stroke-width: 0px;      }      .uuid-84b0d82c-c3af-48c6-9122-754ea8374c52 {        fill: #5b00d5;      }    </style></defs><g id="uuid-ed7d5b90-ce11-4324-bc43-151d7de3e114" data-name="Layer 1"><g><rect class="uuid-86f20456-63d4-414e-a321-edb560010167" width="193.19" height="53.39"></rect><path class="uuid-84b0d82c-c3af-48c6-9122-754ea8374c52" d="M63.12,13.63v2.56c-1.46-1.9-4.18-3.2-7.33-3.2-7.45,0-12.99,6.58-12.99,14.29s5.49,14.29,12.99,14.29c3.15,0,5.87-1.25,7.33-3.26v2.56h9.3V13.63h-9.3ZM75.62,1.56v39.3h9.61v-14.51c0-2.82,1.36-4.51,3.53-4.51s3.31,1.46,3.31,4.18v14.84h9.61v-17.12c0-6.63-3.59-10.76-9.35-10.76-3.1,0-5.49,1.2-7.17,3.31V1.56h-9.56.01ZM163.6,27.27c0,8.15-6.25,14.29-14.57,14.29s-14.57-6.14-14.57-14.29,6.25-14.29,14.57-14.29,14.57,6.14,14.57,14.29h0ZM132.85,27.27c0,8.15-6.25,14.29-14.57,14.29s-14.57-6.14-14.57-14.29,6.25-14.29,14.57-14.29,14.57,6.14,14.57,14.29h0ZM11.7,13.63l11.63,27.44-4.18,9.89h10.22l15.48-37.33h-10.17l-6.3,15.98-6.25-15.98h-10.43ZM57.73,32.87c-3.2,0-5.66-2.44-5.66-5.59s2.44-5.59,5.66-5.59,5.59,2.44,5.59,5.59-2.44,5.59-5.59,5.59h0ZM123.7,27.28c0-3.05-2.28-5.49-5.43-5.49s-5.43,2.44-5.43,5.49,2.28,5.49,5.43,5.49,5.43-2.44,5.43-5.49h0ZM154.46,27.28c0-3.05-2.28-5.49-5.43-5.49s-5.43,2.44-5.43,5.49,2.28,5.49,5.43,5.49,5.43-2.44,5.43-5.49h0ZM164.79,35.1c0,3.43,2.66,6.25,6.25,6.25s6.46-2.94,6.46-6.46-2.66-6.25-6.25-6.25-6.46,2.99-6.46,6.46h0ZM178.48,1.58l-10.22,24.67h11.42l10.22-24.67h-11.42Z"></path></g></g></svg>